<svg xmlns="http://www.w3.org/2000/svg" width="270.12" height="52.43" viewBox="0 0 270.12 52.43"><title>HH_Logo_Lockup_Black</title><path d="M212.18,36.09l.67.08v.88l-3,.6a1.25,1.25,0,0,1-1.5-1.23v-1c-1.3,1.24-2.7,2.54-4.82,2.54-2.28,0-3.65-1.22-3.65-4.25V26.59c0-.93-.31-1.19-1.55-1.35l-.42,0v-.88l4-.59h.39v9.63c0,1.89.75,2.69,2.41,2.69a5,5,0,0,0,1.33-.18,3.2,3.2,0,0,0,2.35-3.11V26.59c0-.93-.31-1.19-1.56-1.35l-.41,0v-.88l3.94-.59h.41V34.9C210.73,35.78,211,36,212.18,36.09Zm23.36-.77V28c0-2.95-1.19-4.24-3.45-4.24-2.07,0-3.67,1.37-4.94,2.61a3,3,0,0,0-3.29-2.61c-2.07,0-3.55,1.29-4.82,2.53V23.72h-.65L214.8,25v.54l.46.23a2.48,2.48,0,0,1,1.4,2.24v7.3c0,1.19-.85,1.32-2,1.47v.91H221v-.91c-1.17-.15-2-.28-2-1.47V29.08a3.57,3.57,0,0,1,2.73-3.36,4.78,4.78,0,0,1,.92-.09c1.61,0,2.23.65,2.23,2.51v7.18c0,1.19-.85,1.32-2,1.47v.91h6.4v-.91c-1.14-.15-2-.28-2-1.47V29.07A3.56,3.56,0,0,1,230,25.72a4.6,4.6,0,0,1,.91-.09c1.6,0,2.23.65,2.23,2.51v7.18c0,1.19-.86,1.32-2,1.47v.91h6.4v-.91C236.39,36.64,235.54,36.51,235.54,35.32Zm30.5,0V28c0-3-1.37-4.24-3.62-4.24s-3.7,1.29-5,2.53V23.72h-.65L253.2,25v.54l.46.23a2.48,2.48,0,0,1,1.4,2.24v7.3c0,1.19-.85,1.32-2,1.47v.91h6.37v-.91c-1.17-.15-2-.28-2-1.47V29.21a3.54,3.54,0,0,1,2.86-3.49,5,5,0,0,1,.94-.09c1.66,0,2.41.65,2.41,2.51v7.18c0,1.19-.85,1.32-2,1.47v.91h6.39v-.91C266.9,36.64,266,36.51,266,35.32Zm6.35-1.14a1.89,1.89,0,1,0,1.89,1.89A1.87,1.87,0,0,0,272.39,34.18Zm-83-13.64c1.68.05,2.64.31,2.64,1.89v.76A4.12,4.12,0,0,1,189.36,27l-7,2.66V22.43c0-1.58.95-1.84,2.64-1.89v-1h-7.77v1c1.74.05,2.64.31,2.64,1.89V34.8c0,1.58-.9,1.84-2.64,1.89v1H185v-1c-1.69,0-2.64-.31-2.64-1.89v-.62a4.19,4.19,0,0,1,2.69-3.91L192,27.63V34.8c0,1.58-1,1.84-2.64,1.89v1h7.76v-1c-1.73,0-2.64-.31-2.64-1.89V22.43c0-1.58.91-1.84,2.64-1.89v-1h-7.76ZM251.9,36.71A3.55,3.55,0,0,1,249.31,38c-1.32,0-2-1-2.2-2.36A6,6,0,0,1,242.79,38a3.24,3.24,0,0,1-3.45-3.5c0-2.41,1.92-3.24,3.6-3.83l4.1-1.48V27.88c0-1.55-.55-2.92-2.57-2.92-.79,0-2.15.39-2.12,1.29a7.28,7.28,0,0,1,.16,1.2,1.33,1.33,0,0,1-.58,1.21,1.42,1.42,0,0,1-.78.21,1.33,1.33,0,0,1-1.07-.46,1.58,1.58,0,0,1-.37-1,3.21,3.21,0,0,1,1.34-2.28A5.89,5.89,0,0,1,245,23.72c3,0,4.48,1.52,4.48,4.35,0,.85-.07,5.33-.07,6.42s.44,1.76,1.19,1.76a5.52,5.52,0,0,0,1.21-.16ZM247,30.34l-3.68,1.4a2.23,2.23,0,0,0-1.58,2.1c0,1.48.75,2.3,2.07,2.3a4.52,4.52,0,0,0,.53,0,3,3,0,0,0,2.66-3Zm-131.69,5V18h-.65l-3.62,1.3v.54l.48.23A2.49,2.49,0,0,1,113,22.3v13c0,1.19-.85,1.32-2,1.47v.91h6.4v-.91C116.21,36.64,115.35,36.51,115.35,35.32Zm-6.51-1.56.44.23a5.3,5.3,0,0,1-5.44,4c-3.78,0-6-3-6-6.68,0-4.53,2.64-7.56,6.22-7.56,3.42,0,5.2,2.38,5.2,5.77v.8H100c0,3.39,1.81,5.7,4.74,5.7A4.91,4.91,0,0,0,108.84,33.76Zm-8.75-4.71h6.78c0-2.49-1.09-4.07-3.21-4.07S100.29,26.9,100.09,29.05ZM133,30.19c0,4.79-3,7.77-6.4,7.77a4,4,0,0,1-3.39-1.43v3.89c0,1.19.85,1.32,2,1.47v.91h-6.42v-.91c1.16-.15,2-.28,2-1.47V28a2.5,2.5,0,0,0-1.42-2.25l-.47-.23V25l3.65-1.29h.62V26a5.45,5.45,0,0,1,4.43-2.25C131.2,23.72,133,26.62,133,30.19Zm-2.38,1.09c0-2.93-1.14-5.83-4-5.83a5.19,5.19,0,0,0-2.82.8,1.29,1.29,0,0,0-.55,1.05v5.87c0,2.38,1.32,3.6,3.34,3.6C129,36.77,130.66,34.62,130.66,31.28Zm35.19,4V18h-.65l-3.62,1.3v.54L162,20a2.57,2.57,0,0,1,1.46,2.32v13c0,1.19-.85,1.32-2,1.47v.91h6.4v-.91C166.71,36.64,165.85,36.51,165.85,35.32ZM88.7,20.54c1.68.05,2.64.31,2.64,1.89v.76A4.12,4.12,0,0,1,88.7,27l-7,2.66V22.43c0-1.58,1-1.84,2.64-1.89v-1H76.62v1c1.73.05,2.64.31,2.64,1.89V34.8c0,1.58-.91,1.84-2.64,1.89v1h7.76v-1c-1.68,0-2.64-.31-2.64-1.89v-.62a4.19,4.19,0,0,1,2.7-3.91l6.9-2.64V34.8c0,1.58-1,1.84-2.64,1.89v1h7.76v-1c-1.73,0-2.64-.31-2.64-1.89V22.43c0-1.58.91-1.84,2.64-1.89v-1H88.7ZM157.93,34.9V23.72h-.41l-3.94.59v.88l.41,0c1.25.16,1.56.42,1.56,1.35v6.16a3.2,3.2,0,0,1-2.35,3.11,5,5,0,0,1-1.33.18c-1.66,0-2.41-.8-2.41-2.69V23.72h-.39l-4,.59v.88l.42,0c1.24.16,1.55.42,1.55,1.35v7.12c0,3,1.37,4.25,3.65,4.25,2.12,0,3.52-1.3,4.82-2.54v1a1.25,1.25,0,0,0,1.5,1.23l3-.6v-.88l-.67-.08C158.21,36,157.93,35.78,157.93,34.9ZM145,18.85a3.25,3.25,0,0,0-2.42-1.08,6.44,6.44,0,0,0-2.53.36h0a3.24,3.24,0,0,0-.33.13h0c-1.74.75-2.72,2.5-2.8,5.2a.48.48,0,0,1-.32.45l-1.6.56v.86h1.92v10c0,1.19-.85,1.32-2,1.47v.91h6.88v-.91c-1.86-.21-2.51-.28-2.51-1.58V26.37a1,1,0,0,1,1-1h2.4V24h-2.46a1,1,0,0,1-1-.95v-.34a5,5,0,0,1,.82-3.3l.15-.14.1-.08a1.32,1.32,0,0,1,1.83.3,8.63,8.63,0,0,0,.57,1.06,1.33,1.33,0,0,0,1.17.66,1.41,1.41,0,0,0,.75-.29,1.29,1.29,0,0,0,.61-1A1.59,1.59,0,0,0,145,18.85Z" transform="translate(-4.15 -4.6)" fill="#231f20"/><path d="M30.37,57A26.22,26.22,0,1,1,56.59,30.81,26.25,26.25,0,0,1,30.37,57Zm0-50.54A24.32,24.32,0,1,0,54.69,30.81,24.35,24.35,0,0,0,30.37,6.49Z" transform="translate(-4.15 -4.6)" fill="#010101"/><path d="M29.79,30c5-1.67,9.36-3.11,9.36-11V17h-2v2c0,6.39-3.17,7.44-8,9a30.7,30.7,0,0,0-5.54,2.29V17h-2V31.78a11.45,11.45,0,0,0-2.33,2.67V17h-2V44.62h2v-2C19.26,33.5,24.86,31.65,29.79,30Z" transform="translate(-4.15 -4.6)" fill="#010101"/><path d="M41.48,17v2c0,9.11-5.61,11-10.56,12.61s-9.33,3.1-9.33,10.91v2h2v-2c0-6.35,3.17-7.4,8-9a30.35,30.35,0,0,0,5.56-2.3V44.62h2V29.87a11.45,11.45,0,0,0,2.33-2.67V44.62h2V17Z" transform="translate(-4.15 -4.6)" fill="#010101"/></svg>